<svg width="29" height="28" viewBox="0 0 29 28" fill="none" xmlns="http://www.w3.org/2000/svg">
<path d="M25.3743 11.8774C25.5158 12.6352 25.5928 13.4276 25.5928 14.2544C25.5928 20.722 21.2642 25.3209 14.7265 25.3209C13.2397 25.3213 11.7674 25.0288 10.3937 24.4601C9.02006 23.8913 7.77191 23.0575 6.7206 22.0062C5.6693 20.9549 4.83544 19.7067 4.26669 18.333C3.69794 16.9593 3.40543 15.4871 3.40588 14.0003C3.40543 12.5135 3.69794 11.0412 4.26669 9.66755C4.83544 8.29386 5.6693 7.04571 6.7206 5.9944C7.77191 4.9431 9.02006 4.10925 10.3937 3.54049C11.7674 2.97174 13.2397 2.67923 14.7265 2.67969C17.7832 2.67969 20.3373 3.80439 22.2969 5.63059L19.1057 8.82184V8.81379C17.9177 7.68219 16.4101 7.10144 14.7265 7.10144C10.9913 7.10144 7.95529 10.257 7.95529 13.9934C7.95529 17.7286 10.9913 20.8911 14.7265 20.8911C18.1155 20.8911 20.4224 18.9533 20.8962 16.2922H14.7265V11.8774H25.3755H25.3743Z" fill="white"/>
</svg>
