<svg width="34" height="34" viewBox="0 0 34 34" fill="none" xmlns="http://www.w3.org/2000/svg">
<path d="M17 4.92578C24.7803 4.92578 31.0875 9.84165 31.0875 15.9073C31.0875 21.9717 24.7803 26.8875 17 26.8875C16.2253 26.8879 15.4513 26.8386 14.6829 26.7399L8.76885 30.608C8.09667 30.9635 7.8592 30.9246 8.13558 30.0539L9.33235 25.1192C5.46835 23.1604 2.91248 19.766 2.91248 15.9073C2.91248 9.84299 9.21965 4.92578 17 4.92578ZM24.9252 15.7396L26.8974 13.8291C27.0113 13.7109 27.0747 13.5531 27.0745 13.3891C27.0743 13.225 27.0105 13.0674 26.8964 12.9495C26.7823 12.8316 26.6269 12.7626 26.4629 12.7569C26.2989 12.7513 26.1392 12.8096 26.0173 12.9194L23.4306 15.423V13.3541C23.4306 13.1862 23.3639 13.0251 23.2451 12.9063C23.1263 12.7876 22.9653 12.7209 22.7973 12.7209C22.6294 12.7209 22.4683 12.7876 22.3495 12.9063C22.2308 13.0251 22.164 13.1862 22.164 13.3541V16.7848C22.1403 16.8826 22.1403 16.9848 22.164 17.0826V19.0133C22.164 19.1812 22.2308 19.3423 22.3495 19.4611C22.4683 19.5798 22.6294 19.6466 22.7973 19.6466C22.9653 19.6466 23.1263 19.5798 23.2451 19.4611C23.3639 19.3423 23.4306 19.1812 23.4306 19.0133V17.1846L24.0035 16.6305L25.9194 19.3581C25.9672 19.4262 26.028 19.4842 26.0982 19.5288C26.1685 19.5734 26.2468 19.6037 26.3288 19.6181C26.4108 19.6324 26.4948 19.6304 26.576 19.6123C26.6572 19.5942 26.7341 19.5602 26.8022 19.5124C26.8703 19.4645 26.9283 19.4038 26.9729 19.3335C27.0175 19.2633 27.0478 19.1849 27.0622 19.1029C27.0765 19.021 27.0745 18.937 27.0564 18.8557C27.0383 18.7745 27.0043 18.6977 26.9565 18.6296L24.9252 15.7383V15.7396ZM20.9566 18.321H18.9977V13.3743C18.9902 13.2115 18.9203 13.0579 18.8025 12.9454C18.6847 12.8329 18.528 12.7701 18.3651 12.7701C18.2022 12.7701 18.0456 12.8329 17.9278 12.9454C17.8099 13.0579 17.74 13.2115 17.7325 13.3743V18.9543C17.7325 19.3031 18.0143 19.5875 18.3644 19.5875H20.9566C21.1245 19.5875 21.2856 19.5208 21.4043 19.402C21.5231 19.2833 21.5898 19.1222 21.5898 18.9543C21.5898 18.7863 21.5231 18.6252 21.4043 18.5065C21.2856 18.3877 21.1245 18.321 20.9566 18.321ZM13.0984 16.8559L14.0322 14.5657L14.8882 16.8559H13.0984ZM16.4834 17.5106L16.4861 17.4892C16.4858 17.3296 16.4249 17.1762 16.3157 17.0598L14.9123 13.3031C14.8535 13.1241 14.7415 12.9673 14.5911 12.8537C14.4408 12.74 14.2594 12.675 14.0711 12.6672C13.8815 12.6664 13.696 12.7233 13.5395 12.8304C13.383 12.9376 13.2629 13.0898 13.195 13.2669L10.9665 18.7342C10.9351 18.8112 10.9191 18.8936 10.9195 18.9768C10.9199 19.06 10.9367 19.1423 10.9689 19.2189C11.0011 19.2956 11.0481 19.3652 11.1072 19.4237C11.1663 19.4823 11.2363 19.5286 11.3133 19.56C11.3903 19.5915 11.4728 19.6074 11.5559 19.607C11.6391 19.6066 11.7214 19.5898 11.798 19.5576C11.8747 19.5254 11.9443 19.4784 12.0028 19.4193C12.0614 19.3602 12.1077 19.2902 12.1391 19.2132L12.5819 18.1224H15.3591L15.7603 19.1957C15.7875 19.276 15.8306 19.3499 15.887 19.4132C15.9434 19.4765 16.0119 19.5278 16.0884 19.5641C16.165 19.6004 16.2481 19.621 16.3327 19.6246C16.4174 19.6282 16.5019 19.6148 16.5813 19.5852C16.6607 19.5556 16.7333 19.5103 16.7949 19.4521C16.8565 19.3939 16.9057 19.3239 16.9398 19.2463C16.9738 19.1687 16.9919 19.085 16.9931 19.0003C16.9942 18.9156 16.9783 18.8315 16.9463 18.753L16.4834 17.5106ZM12.0264 13.381C12.0264 13.2132 11.9599 13.0524 11.8414 12.9337C11.7229 12.8149 11.5622 12.7481 11.3945 12.7477H7.04078C6.87283 12.7477 6.71176 12.8144 6.593 12.9332C6.47424 13.0519 6.40752 13.213 6.40752 13.381C6.40752 13.5489 6.47424 13.71 6.593 13.8288C6.71176 13.9475 6.87283 14.0142 7.04078 14.0142H8.59712V19.0267C8.59712 19.1947 8.66384 19.3557 8.7826 19.4745C8.90136 19.5932 9.06243 19.66 9.23038 19.66C9.39834 19.66 9.55941 19.5932 9.67817 19.4745C9.79693 19.3557 9.86365 19.1947 9.86365 19.0267V14.0142H11.3932C11.5611 14.0142 11.7222 13.9475 11.8409 13.8288C11.9597 13.71 12.0264 13.5489 12.0264 13.381Z" fill="black"/>
</svg>
